<?xml version="1.0" encoding="utf-8"?>
<!-- Generator: Adobe Illustrator 18.1.1, SVG Export Plug-In . SVG Version: 6.00 Build 0)  -->
<svg version="1.1" id="Layer_1" xmlns="http://www.w3.org/2000/svg" xmlns:xlink="http://www.w3.org/1999/xlink" x="0px" y="0px"
	 width="182px" height="90px" viewBox="0 0 182 90" style="enable-background:new 0 0 182 90;" xml:space="preserve">
<style type="text/css">
	.st0{fill:#FFFFFF;}
</style>
<g>
	<path class="st0" d="M48.6,0c0,0,1,1.7,1,3.4c0,1.5-2.1,7-3.2,11.1H27.2L25.2,27H41l-2.2,8.6c-0.6,2.3-2.3,3.9-4.5,3.9h-11
		l-2.1,13.6H40c0,0,1,1.7,1,3.4c0,1.5-2.1,7-3.2,11.1H3.6c-1.9,0-3.6-1.6-3.6-1.6L10.2,0H48.6z"/>
	<path class="st0" d="M88.5,32.4c0,7.2-4,12-14,14.1L64,48.7c0.8,4.6,3.6,6.8,8.3,6.8c5.8,0,9.6-4.4,9.6-4.4s2.9,1.7,2.9,5.1
		c0,6-9.2,12.6-19.8,12.6c-10.8,0-17.9-6.9-17.9-18.6c0-13.5,9.5-31.8,26.3-31.8C82.7,18.4,88.5,23.9,88.5,32.4L88.5,32.4z
		 M70.8,39.3c2.2-0.7,2.9-2.6,2.9-4.7c0-2-0.7-5-2.9-5c-4.2,0-6,6.8-6.6,11.8L70.8,39.3z"/>
	<path class="st0" d="M124.4,50.4c0,0,3.6,3.4,3.6,8.9c0,7.4-6.2,9.4-11.4,9.4c-6.8,0-11.7-3.3-16.9-5c-1.4,1.7-2.8,3.4-4.2,5
		c0,0-7.7-0.2-7.7-5.5c0-6.4,10.6-17.4,22-29.9c-1.3-0.2-2.6-0.4-3.7-0.4c-6.5,0-9,3.3-9,3.3s-3.3-3.9-3.1-8.9c0.4-7,7-8.9,12.1-8.9
		c5.5,0,9.5,2.1,13.5,3.9l3.2-3.9c0,0,7.7,0.2,7.7,5.5c0,6.2-10.3,17-21.3,29.1c2.3,0.7,4.5,1.2,6.7,1.2
		C121.7,54.2,124.4,50.4,124.4,50.4L124.4,50.4z"/>
	<path class="st0" d="M175,64.4C172.3,81.4,160.8,90,146.2,90c-9.3,0-16.2-4.9-16.2-10.6c0-3.8,3.1-5.5,3.1-5.5s3.2,2.9,9.4,2.9
		c5.8,0,13.8-2.5,15.2-11.4l1.1-6.9c-3.9,5.7-9.1,10.3-15.7,10.3c-7.4,0-10.7-6.1-8.7-18.5l2.1-13.4c1.3-8.2,1.7-14.9,1.7-14.9
		c5.3-1,12.2-3.5,14.6-3.5c1.9,0,3.6,1.6,3.6,1.6l-2.6,16.8l-2.4,15.5c-0.2,1.4,0,2.2,1.3,2.2c6.1,0,9.6-17.7,9.6-17.7
		c1.3-8.2,1.6-14.9,1.6-14.9c5.3-1,12.2-3.5,14.6-3.5c1.9,0,3.6,1.6,3.6,1.6l-2.6,16.8L175,64.4z"/>
</g>
</svg>
