<?xml version="1.0" encoding="utf-8"?>
<!-- Generator: Adobe Illustrator 15.0.0, SVG Export Plug-In . SVG Version: 6.00 Build 0)  -->
<!DOCTYPE svg PUBLIC "-//W3C//DTD SVG 1.1//EN" "http://www.w3.org/Graphics/SVG/1.1/DTD/svg11.dtd">
<svg version="1.1" id="Layer_2" xmlns="http://www.w3.org/2000/svg" xmlns:xlink="http://www.w3.org/1999/xlink" x="0px" y="0px"
	 width="50px" height="50px" viewBox="21 21 50 50" enable-background="new 21 21 50 50" xml:space="preserve">
<g>
	<path fill="#737373" d="M46.223,26.477c-10.659,0-19.3,8.641-19.3,19.3c0,10.661,8.641,19.3,19.3,19.3
		c10.661,0,19.3-8.64,19.3-19.3C65.523,35.118,56.882,26.477,46.223,26.477z M46.223,63.002c-9.498,0-17.225-7.728-17.225-17.225
		c0-0.569,0.029-1.131,0.083-1.686c2.997-0.739,5.948-3.48,7.937-6.097c5.375,6.241,11.758,9.802,26.121,11.022
		C61.618,56.971,54.614,63.002,46.223,63.002z"/>
	<circle fill="#737373" cx="41.584" cy="47.693" r="1.867"/>
	<circle fill="#737373" cx="50.578" cy="47.693" r="1.867"/>
	<path fill="#737373" d="M52.126,54.25c-0.097-0.126-0.266-0.172-0.412-0.108c-0.035,0.015-3.791,1.606-8.251,1.45
		c-0.181-0.006-0.317,0.111-0.351,0.276s0.057,0.33,0.214,0.393c1.021,0.395,2.104,0.595,3.216,0.595
		c2.649,0,4.711-1.095,5.579-2.179C52.219,54.552,52.223,54.376,52.126,54.25z"/>
</g>
</svg>
